<svg width="877.67" height="151" version="1.1" viewBox="0 0 877.67 151" xmlns="http://www.w3.org/2000/svg">
 <g transform="matrix(1.3333 0 0 -1.3333 0 151)">
  <g transform="translate(-30.239 -341.48)">
   <g transform="translate(691.41 371)">
    <path d="m0 0v69.174c-8.455 4.978-39.839 20.9-72.015-3.158-20.598-15.401-49.774 14.553-75.964 3.093-8.573-3.752-40.43-21.734-53.605-15.466-77.893 37.061-71.83-12.208-110.42 7.683-52.696 27.16-57.594-28.767-127.39 3.983-27.826 13.056-56.838-8.372-84.772-9.283-41.522-1.355-50.71 29.228-80.01 12.576-10.757-6.114-35.097-10.252-48.069-1.647-2.463 1.634-5.604 3.091-8.918 4.089v-71.044z" fill="#009fd7" fill-rule="evenodd"/>
   </g>
   <g transform="translate(30.239 347.46)">
    <path d="m0 0v71.334c9.436 5.702 15.315 5.367 25.004 2.493 31.413-9.316 63.865-7.947 94.922 6.413 36.151 16.716 56.808-7.394 86.145-10.924 20.246-2.436 44.231 20.882 71.3 16.926 31.527-4.606 43.782-27.874 94.022-1.443 15.668 8.243 53.334-15.922 78.932-15.922 48.112 0 36.313 31.442 100.94 5.301 47.327-19.143 86.817 37.57 109.91 18.534v-92.712z" fill="#00adee" fill-rule="evenodd"/>
   </g>
   <g transform="translate(30.239 341.48)">
    <path d="m0 0v51.248c46.055 6.423 53.402 51.736 103.74 24.006 46.71-25.731 72.258 16.044 141.86-7.309 30.971-10.392 52.946 39.558 102.7 11.732 65.982-36.899 77.509 42.333 122.44 2.222 23.301-20.804 39.327-18.839 65.039-0.665 13.971 9.876 33.405 6.683 48.637-0.807 26.67-13.112 34.748 24.622 75.729-9.33 0.242-0.201 0.594-0.455 1.03-0.75v-70.347z" fill="#21b9ec" fill-rule="evenodd"/>
   </g>
   <g transform="translate(30.239 341.48)">
    <path d="m0 0v43.891c8.455 4.427 23.958 16.806 72.015 2.123 25.896-7.912 48.746 18.856 74.935 8.662 8.573-3.337 40.902-11.427 54.634-6.96 68.634 22.328 71.83-10.859 110.42 6.834 52.696 24.159 57.594-25.588 127.39 3.543 27.826 11.614 56.838-7.446 84.772-8.257 41.522-1.205 50.71 25.998 80.01 11.186 10.757-5.438 35.097-9.119 48.069-1.464 2.463 1.453 5.604 2.749 8.918 3.636v-63.194z" fill="#44c7f4" fill-rule="evenodd"/>
   </g>
  </g>
 </g>
</svg>
